# xmcd CD database file
#
# Track frame offsets:
#	150
#	29100
#	53100
#	82400
#	105780
#	134900
#	153835
#
# Disc length: 2864 seconds
#
# Revision: 6
# Processed by: cddbd v1.5.1PL0 Copyright (c) Steve Scherf et al.
# Submitted via: CDex 1.50beta9
#
DISCID=5d0b2e07
DTITLE=The Bugs Henderson Group - At Last
DYEAR=1991
DGENRE=Rock
TTITLE0=Boppin´ The Blues-Blue Suede Shoes
TTITLE1=Love Junkie
TTITLE2=Takes My Breath Away
TTITLE3=Honest I Do
TTITLE4=Shuffle King
TTITLE5=Texas Ballbuster
TTITLE6=Hound Dog-Gigglebush Boogie
EXTD=Recorded live on stage at The Armadillo World \nHeadquarters by Onion Audio in Austin, Texas\nP1978  C1991 TAXIM Records TX 1002-2 YEAR: 1991
EXTT0=
EXTT1=
EXTT2=
EXTT3=
EXTT4=
EXTT5=
EXTT6=
PLAYORDER=
